<svg width="248" height="75" viewBox="0 0 248 75" fill="none" xmlns="http://www.w3.org/2000/svg">
<path d="M153.298 37.7297V53.2884H162.075C162.778 53.2884 163.312 53.457 163.689 53.8C164.06 54.143 164.251 54.5704 164.251 55.0821C164.251 55.5938 164.066 56.0324 163.695 56.3585C163.324 56.6846 162.784 56.8477 162.075 56.8477H151.622C150.678 56.8477 150.003 56.6396 149.587 56.2179C149.171 55.7962 148.968 55.1271 148.968 54.1936V37.7297C148.968 36.8525 149.165 36.2003 149.559 35.7617C149.952 35.3231 150.47 35.1038 151.111 35.1038C151.752 35.1038 152.291 35.3231 152.691 35.7561C153.09 36.189 153.298 36.8469 153.298 37.7297Z" fill="#76C55E"/>
<path d="M170.262 35.1099C172.444 35.1099 174.311 35.5541 175.874 36.4369C177.437 37.3197 178.618 38.5792 179.422 40.2099C180.226 41.8405 180.625 43.758 180.625 45.9509C180.625 47.5759 180.406 49.0548 179.967 50.3818C179.529 51.7088 178.865 52.8615 177.988 53.8399C177.111 54.8183 176.026 55.5605 174.749 56.0778C173.467 56.5951 172 56.8538 170.347 56.8538C168.694 56.8538 167.232 56.5895 165.933 56.0609C164.634 55.5324 163.549 54.7845 162.677 53.8174C161.805 52.8503 161.148 51.6919 160.703 50.3312C160.259 48.9704 160.034 47.5085 160.034 45.9284C160.034 44.3484 160.265 42.8302 160.731 41.4807C161.193 40.1312 161.867 38.9841 162.744 38.0394C163.622 37.0948 164.696 36.3694 165.955 35.869C167.215 35.3686 168.649 35.1155 170.257 35.1155L170.262 35.1099ZM176.313 45.9172C176.313 44.3765 176.065 43.0439 175.565 41.9193C175.07 40.7891 174.356 39.94 173.434 39.3608C172.511 38.7817 171.454 38.4949 170.257 38.4949C169.408 38.4949 168.62 38.6523 167.895 38.9728C167.17 39.2934 166.551 39.7601 166.028 40.373C165.505 40.9859 165.095 41.7674 164.797 42.7177C164.499 43.668 164.347 44.7364 164.347 45.9228C164.347 47.1092 164.499 48.2001 164.797 49.1616C165.1 50.1288 165.522 50.9272 166.073 51.5626C166.624 52.198 167.254 52.6759 167.968 52.9908C168.682 53.3057 169.464 53.4632 170.313 53.4632C171.404 53.4632 172.405 53.1932 173.316 52.6478C174.226 52.1024 174.957 51.259 175.497 50.1231C176.037 48.9873 176.307 47.5872 176.307 45.9228L176.313 45.9172Z" fill="#76C55E"/>
<path d="M183.448 37.9045L186.085 45.7204C186.771 47.7503 189.639 47.7446 190.319 45.7204L192.979 37.8089C193.227 37.0611 193.412 36.5437 193.536 36.2514C193.659 35.959 193.868 35.6947 194.154 35.4641C194.413 35.2561 194.75 35.138 195.178 35.1155C195.566 35.093 195.971 35.1774 196.308 35.3686C196.645 35.5597 196.887 35.8015 197.073 36.1108C197.247 36.4088 197.337 36.7181 197.337 37.0217C197.337 37.2297 197.309 37.4603 197.253 37.7021C197.196 37.9439 197.123 38.1856 197.039 38.4162C196.955 38.6523 196.865 38.8941 196.78 39.1415L191.691 52.8784C191.512 53.4013 191.326 53.9017 191.146 54.3741C190.966 54.8464 190.752 55.2625 190.516 55.6224C190.274 55.9822 189.96 56.2746 189.56 56.5052C189.161 56.7357 188.678 56.8482 188.104 56.8482C187.53 56.8482 187.047 56.7357 186.648 56.5108C186.248 56.2859 185.928 55.9879 185.686 55.6224C185.444 55.2569 185.231 54.8352 185.045 54.3684C184.865 53.9017 184.68 53.4013 184.5 52.8784L179.495 39.254C179.411 39.0066 179.321 38.7592 179.231 38.523C179.141 38.2812 179.062 38.0282 179 37.747C178.939 37.4715 178.905 37.2354 178.905 37.0442C178.905 36.555 179.102 36.1108 179.495 35.7115C179.889 35.3123 180.378 35.1099 180.974 35.1099C181.7 35.1099 182.217 35.3348 182.515 35.779C182.813 36.2232 183.122 36.9317 183.437 37.9101L183.448 37.9045Z" fill="#76C55E"/>
<path d="M211.895 38.5005H201.976V43.8367H211.108C211.782 43.8367 212.283 43.9885 212.614 44.2865C212.946 44.5902 213.109 44.9838 213.109 45.4786C213.109 45.9734 212.946 46.3726 212.62 46.6875C212.294 46.9968 211.788 47.1542 211.108 47.1542H201.976V53.3338H212.238C212.929 53.3338 213.452 53.4969 213.801 53.8174C214.15 54.1379 214.329 54.5652 214.329 55.0994C214.329 55.6336 214.155 56.0328 213.801 56.3533C213.447 56.6738 212.929 56.8369 212.238 56.8369H200.272C199.311 56.8369 198.625 56.6232 198.203 56.2015C197.781 55.7742 197.573 55.0882 197.573 54.1435V37.8089C197.573 37.1735 197.669 36.6618 197.854 36.257C198.04 35.8577 198.338 35.5654 198.737 35.3854C199.136 35.1999 199.648 35.1099 200.272 35.1099H211.895C212.598 35.1099 213.121 35.2673 213.458 35.5766C213.801 35.8859 213.97 36.2963 213.97 36.8024C213.97 37.3085 213.801 37.7302 213.458 38.0394C213.115 38.3543 212.598 38.5061 211.895 38.5061V38.5005Z" fill="#76C55E"/>
<path d="M220.262 47.5473H218.721V55.4476C218.721 56.3641 217.81 55.2676 217.405 55.7006C217 56.1336 216.972 55.858 216.32 55.858C215.617 55.858 215.341 56.5215 214.959 56.0661C214.577 55.6106 214.312 55.4082 214.312 54.5254V37.8028C214.312 36.8525 214.526 36.1665 214.948 35.7392C215.375 35.3118 216.061 35.1038 217.012 35.1038H224.17C225.159 35.1038 226.003 35.1432 226.705 35.2275C227.408 35.3118 228.038 35.4805 228.6 35.7392C229.281 36.026 229.882 36.4364 230.411 36.9706C230.934 37.5048 231.333 38.1233 231.603 38.8318C231.873 39.5403 232.008 40.2881 232.008 41.0753C232.008 42.6948 231.552 43.9936 230.636 44.9608C229.719 45.9279 228.336 46.6196 226.475 47.0188C227.256 47.4349 228.004 48.0478 228.713 48.8575C229.427 49.6672 230.062 50.5331 230.619 51.444C231.176 52.3549 231.614 53.1815 231.924 53.9181C232.233 54.6547 232.39 55.1608 232.39 55.4363C232.39 55.7118 232.3 56.0042 232.115 56.291C231.929 56.5722 231.682 56.7971 231.367 56.9601C231.052 57.1232 230.686 57.2075 230.27 57.2075C229.776 57.2075 229.359 57.0895 229.022 56.8589C228.685 56.6284 228.398 56.3304 228.156 55.9761C227.914 55.6219 227.588 55.0989 227.172 54.4017L225.407 51.4665C224.777 50.3869 224.209 49.5716 223.708 49.0037C223.208 48.4414 222.702 48.0534 222.19 47.8454C221.679 47.6373 221.026 47.5361 220.25 47.5361L220.262 47.5473ZM222.781 38.4101H218.721V44.3873H222.663C223.72 44.3873 224.608 44.2973 225.333 44.1117C226.053 43.9262 226.604 43.6169 226.987 43.1783C227.369 42.7397 227.555 42.1325 227.555 41.3621C227.555 40.7605 227.403 40.2263 227.093 39.7708C226.79 39.3097 226.362 38.9667 225.817 38.7418C225.305 38.5225 224.288 38.4157 222.781 38.4157V38.4101Z" fill="#76C55E"/>
<path d="M247.836 50.1791C247.836 51.4499 247.51 52.5913 246.852 53.6091C246.2 54.6212 245.239 55.4141 243.979 55.9876C242.72 56.5611 241.218 56.8479 239.492 56.8479C237.417 56.8479 235.708 56.4543 234.358 55.6727C233.402 55.1104 232.626 54.3569 232.03 53.4123C231.434 52.4676 231.136 51.5567 231.136 50.6683C231.136 50.151 231.316 49.7124 231.676 49.3413C232.036 48.9758 232.491 48.7902 233.048 48.7902C233.498 48.7902 233.875 48.9308 234.19 49.2232C234.499 49.51 234.763 49.9373 234.988 50.4996C235.258 51.1687 235.545 51.7254 235.854 52.1752C236.163 52.6251 236.602 52.9962 237.164 53.2886C237.726 53.581 238.469 53.7272 239.385 53.7272C240.645 53.7272 241.674 53.4348 242.461 52.8444C243.248 52.2596 243.642 51.523 243.642 50.6458C243.642 49.9486 243.428 49.3806 243.001 48.9477C242.573 48.5147 242.028 48.183 241.353 47.9524C240.678 47.7219 239.779 47.4801 238.649 47.2214C237.136 46.8672 235.876 46.4511 234.853 45.9788C233.835 45.5064 233.026 44.8598 232.43 44.0445C231.834 43.2292 231.536 42.2114 231.536 40.9968C231.536 39.7823 231.85 38.8095 232.48 37.9155C233.11 37.0158 234.027 36.3242 235.219 35.8462C236.416 35.3627 237.822 35.1209 239.436 35.1209C240.723 35.1209 241.842 35.2839 242.781 35.5988C243.72 35.9193 244.502 36.3467 245.126 36.8752C245.75 37.4038 246.2 37.9605 246.487 38.5452C246.774 39.13 246.92 39.6979 246.92 40.2546C246.92 40.7607 246.74 41.2161 246.38 41.6266C246.02 42.0371 245.576 42.2339 245.042 42.2339C244.553 42.2339 244.182 42.1102 243.929 41.8684C243.675 41.6266 243.4 41.2274 243.102 40.6707C242.72 39.8779 242.259 39.2594 241.724 38.8151C241.19 38.3709 240.33 38.146 239.143 38.146C238.041 38.146 237.159 38.3878 236.484 38.8714C235.809 39.3549 235.472 39.9341 235.472 40.6145C235.472 41.0362 235.584 41.4017 235.815 41.7053C236.045 42.009 236.36 42.2733 236.759 42.4925C237.159 42.7118 237.569 42.8862 237.979 43.0099C238.39 43.1336 239.07 43.3135 240.015 43.5553C241.201 43.8308 242.275 44.1401 243.237 44.4718C244.198 44.8036 245.014 45.214 245.689 45.692C246.363 46.1699 246.886 46.7772 247.269 47.5082C247.645 48.2392 247.836 49.1389 247.836 50.196V50.1791Z" fill="#76C55E"/>
<path fill-rule="evenodd" clip-rule="evenodd" d="M147.439 48.8014C147.917 48.1211 148.434 47.0864 149.143 45.3771C150.565 41.9302 151.37 38.4721 151.668 36.4928C152.758 29.3067 150.307 20.4506 145.64 14.7208C141.31 9.40154 136.356 5.77475 132.831 1.5688C132.403 1.06273 131.88 0.854686 131.7 0.168688C131.093 0.331753 130.891 0.730981 130.48 1.14146L122.091 9.27222L113.791 1.05149C113.364 0.624146 113.111 0.163065 112.487 0C111.857 0.42172 111.402 0.995259 110.845 1.55755L107.471 4.76262C105.723 6.51136 104.193 7.54035 102.422 9.6602C99.1718 13.5513 96.7877 15.5193 94.4261 21.3896C93.2452 24.3192 92.2612 28.2327 92.2612 32.3712C92.5761 37.6455 93.6501 41.1036 94.353 43.156C94.353 43.156 96.0904 47.2832 100.263 52.3608C100.353 52.4732 100.971 53.3167 101.685 53.997C102.281 54.5649 102.523 54.9304 102.928 55.2509L122.265 74.5207C123.007 74.3239 127.084 69.9549 127.703 69.3364L142.255 54.7224C142.721 54.2782 143.199 53.8452 143.649 53.3898C144.673 52.3495 145.977 50.8988 147.445 48.8014M130.812 7.37729C131.453 7.8215 131.88 8.3613 132.415 8.89548C133.039 9.51963 133.326 9.76704 134.012 10.335L138.589 15.0301C141.4 18.5501 142.761 18.9549 144.903 24.3979C146.899 29.4754 146.916 35.3401 145.381 40.3164C144.335 43.7183 141.951 47.525 139.505 49.9485C138.982 50.4658 138.358 51.0225 137.919 51.5679C136.778 53.0018 130.216 59.4119 128.63 60.992C127.253 62.3696 123.592 66.2157 122.265 67.1041C121.866 66.5081 121.101 65.8108 120.539 65.2879L113.111 57.8769C112.509 57.2021 111.902 56.6567 111.267 56.0157L104.772 49.5268C100.448 44.8485 97.6536 39.7148 97.6536 32.5399C97.6536 25.3651 100.561 19.3879 105.278 14.7096C105.706 14.2823 106.156 13.8943 106.538 13.4388L112.993 7.07927C113.921 7.70342 120.269 14.4397 121.714 15.8904C124.402 18.5782 131.447 25.1458 132.943 28.0978C133.82 29.8353 134.231 30.6337 134.231 33.046C134.231 39.7991 130.666 41.4129 127.731 44.9216L122.766 49.7348C121.444 48.852 116.98 44.2244 115.557 42.7849L112.318 38.9388C109.996 34.8791 110.26 29.5766 113.302 25.7699L116.654 22.2106C117.081 21.7832 117.542 21.5302 117.705 20.9061L114.376 17.4929C113.578 18.044 112.178 19.6072 111.43 20.3606C110.435 21.3559 109.585 22.2724 108.748 23.4083C105.222 28.1821 104.834 35.1996 107.539 40.5189C109.214 43.8251 114.877 49.0039 117.418 51.5454C118.329 52.4563 119.122 53.2492 120.033 54.1601C120.753 54.8798 122.108 56.0775 122.603 56.8141C123.958 55.9088 131.054 48.7396 132.51 47.1652C132.954 46.6816 133.101 46.3948 133.601 45.8944C137.363 42.1776 139.291 38.7308 139.291 32.8717C139.291 30.3132 138.544 27.8335 137.666 26.0679C136.019 22.7616 132.51 19.4891 129.901 16.9756L127.708 14.957C127.028 14.2766 126.213 13.3039 125.476 12.809L130.829 7.37167L130.812 7.37729Z" fill="#76C55E"/>
<path d="M20.0514 47.8964V51.9224C20.0514 52.4566 20.0008 52.8839 19.8939 53.2044C19.7871 53.5249 19.5959 53.8117 19.3148 54.0703C19.0336 54.329 18.6738 54.5764 18.2352 54.8182C16.9644 55.5042 15.7386 56.0102 14.5634 56.3251C13.3882 56.64 12.1062 56.7975 10.7229 56.7975C9.10915 56.7975 7.63594 56.55 6.30893 56.0496C4.98192 55.5548 3.85171 54.8294 2.91268 53.8848C1.97365 52.9401 1.25954 51.793 0.753473 50.4435C0.253032 49.094 0 47.5927 0 45.9283C0 44.2639 0.241786 42.802 0.730981 41.4412C1.22018 40.0861 1.93429 38.9334 2.87894 37.9887C3.8236 37.0441 4.9763 36.3187 6.33142 35.8183C7.68655 35.3179 9.22723 35.0648 10.9479 35.0648C12.3592 35.0648 13.6131 35.256 14.704 35.6327C15.7948 36.0095 16.6776 36.4874 17.358 37.061C18.0384 37.6345 18.5501 38.2418 18.8931 38.8828C19.2361 39.5238 19.4104 40.0917 19.4104 40.5865C19.4104 41.1207 19.2136 41.5762 18.8143 41.9529C18.4151 42.3296 17.9428 42.5208 17.3861 42.5208C17.0825 42.5208 16.7845 42.4477 16.5033 42.3072C16.2222 42.1666 15.986 41.9642 15.7948 41.7055C15.2663 40.8846 14.8277 40.2604 14.4622 39.8443C14.0967 39.4226 13.6075 39.0683 12.9946 38.7816C12.3761 38.4948 11.5945 38.3542 10.6386 38.3542C9.68269 38.3542 8.7774 38.5229 8.00144 38.8603C7.22547 39.1977 6.56759 39.6925 6.01654 40.3391C5.46549 40.9858 5.04377 41.773 4.757 42.712C4.46461 43.651 4.31841 44.6857 4.31841 45.8215C4.31841 48.2843 4.88633 50.1849 6.01654 51.5119C7.14675 52.8389 8.72679 53.5024 10.7511 53.5024C11.7351 53.5024 12.6572 53.3731 13.5232 53.1144C14.1979 52.912 14.8839 52.6421 15.5755 52.3104C15.9354 52.136 16.1547 51.7649 16.1547 51.3657V48.9422C16.1547 48.7567 16.0029 48.6048 15.8173 48.6048H12.8597C12.0668 48.6048 11.4652 48.4868 11.0603 48.245C10.6555 48.0032 10.453 47.5983 10.453 47.0248C10.453 46.5581 10.6217 46.1701 10.9591 45.8609C11.2965 45.5572 11.7576 45.3998 12.3423 45.3998H17.1724C17.7628 45.3998 18.2689 45.4504 18.6794 45.5572C19.0899 45.664 19.4216 45.8946 19.6746 46.2601C19.9277 46.6256 20.0514 47.1654 20.0514 47.8964Z" fill="#76C55E"/>
<path d="M26.681 47.3112H26.2649C25.6576 47.3112 25.1684 47.8004 25.1684 48.4077V54.1599C25.1684 55.0596 24.9716 55.7287 24.5724 56.1504C24.1731 56.5778 23.6558 56.7914 23.0148 56.7914C22.3288 56.7914 21.7946 56.5665 21.4123 56.1223C21.0355 55.6781 20.8444 55.0202 20.8444 54.1599V37.7522C20.8444 36.8188 21.0524 36.1497 21.4685 35.7279C21.8846 35.3118 22.5594 35.1038 23.4928 35.1038H30.5158C31.483 35.1038 32.3151 35.1432 33.0011 35.2275C33.6871 35.3118 34.3113 35.4749 34.8623 35.7279C35.5315 36.0091 36.1219 36.4139 36.6392 36.9369C37.1509 37.4598 37.5445 38.0671 37.8088 38.7643C38.073 39.4559 38.208 40.1925 38.208 40.9685C38.208 42.5598 37.7581 43.8306 36.8641 44.7809C36.105 45.5849 35.0142 46.1922 33.5972 46.5971C33.3048 46.6814 33.2429 47.0638 33.496 47.2381C34.0076 47.6036 34.5025 48.059 34.986 48.6045C35.6833 49.3973 36.3074 50.2464 36.8529 51.1404C37.3983 52.0401 37.8256 52.8498 38.1349 53.5695C38.4385 54.2949 38.5903 54.7897 38.5903 55.0596C38.5903 55.3295 38.5004 55.6219 38.3204 55.8974C38.1405 56.1729 37.8987 56.3922 37.5838 56.5497C37.2746 56.7071 36.9147 56.7914 36.5099 56.7914C36.0263 56.7914 35.6158 56.679 35.2897 56.4485C34.9579 56.2235 34.6768 55.9311 34.4406 55.5825C34.2045 55.2339 33.8783 54.7222 33.4735 54.0418L31.7416 51.1629C31.1231 50.1058 30.5664 49.3017 30.0772 48.7507C29.588 48.1996 29.0876 47.8172 28.5871 47.6148C28.0867 47.4124 27.4457 47.3112 26.681 47.3112ZM29.1551 38.3482H25.1684V44.2073H29.037C30.0716 44.2073 30.9488 44.1174 31.6573 43.9374C32.3658 43.7575 32.9056 43.4538 33.2767 43.0209C33.6478 42.5879 33.839 41.9975 33.839 41.2384C33.839 40.648 33.6871 40.1251 33.3891 39.6752C33.0855 39.2254 32.6694 38.888 32.1408 38.6631C31.6348 38.4494 30.6395 38.3426 29.1607 38.3426L29.1551 38.3482Z" fill="#76C55E"/>
<path d="M53.356 38.4944H43.4596V43.8193H52.5744C53.2435 43.8193 53.744 43.9712 54.0757 44.2692C54.4075 44.5672 54.5705 44.9664 54.5705 45.4612C54.5705 45.9561 54.4075 46.3553 54.0813 46.6645C53.7552 46.9738 53.2548 47.1312 52.5744 47.1312H43.4596V53.2996H53.699C54.3906 53.2996 54.9079 53.4627 55.2622 53.7776C55.6108 54.0981 55.7851 54.5254 55.7851 55.0596C55.7851 55.5938 55.6108 55.9874 55.2622 56.3079C54.9135 56.6284 54.3906 56.7914 53.699 56.7914H41.7615C40.8056 56.7914 40.114 56.5778 39.6979 56.1561C39.2762 55.7343 39.0681 55.0483 39.0681 54.0981V37.7972C39.0681 37.1674 39.1637 36.6501 39.3493 36.2509C39.5348 35.8516 39.8328 35.5592 40.2321 35.3793C40.6313 35.1994 41.143 35.1038 41.7615 35.1038H53.3616C54.0645 35.1038 54.5818 35.2612 54.9248 35.5705C55.2622 35.8798 55.4365 36.2902 55.4365 36.7907C55.4365 37.2911 55.2678 37.7128 54.9248 38.0277C54.5874 38.337 54.0645 38.4944 53.3616 38.4944H53.356Z" fill="#76C55E"/>
<path d="M70.3654 38.4944H60.469V43.8193H69.5838C70.2529 43.8193 70.7534 43.9712 71.0851 44.2692C71.4169 44.5672 71.5799 44.9664 71.5799 45.4612C71.5799 45.9561 71.4169 46.3553 71.0907 46.6645C70.7646 46.9738 70.2642 47.1312 69.5838 47.1312H60.469V53.2996H70.7084C71.4 53.2996 71.9173 53.4627 72.2716 53.7776C72.6202 54.0981 72.7945 54.5254 72.7945 55.0596C72.7945 55.5938 72.6202 55.9874 72.2716 56.3079C71.9229 56.6284 71.4 56.7914 70.7084 56.7914H58.7709C57.815 56.7914 57.1234 56.5778 56.7073 56.1561C56.2912 55.7343 56.0775 55.0483 56.0775 54.0981V37.7972C56.0775 37.1674 56.1731 36.6501 56.3587 36.2509C56.5442 35.8516 56.8366 35.5592 57.2415 35.3793C57.6407 35.1994 58.1524 35.1038 58.7709 35.1038H70.371C71.0739 35.1038 71.5912 35.2612 71.9342 35.5705C72.2772 35.8798 72.4459 36.2902 72.4459 36.7907C72.4459 37.2911 72.2772 37.7128 71.9342 38.0277C71.5968 38.337 71.0739 38.4944 70.371 38.4944H70.3654Z" fill="#76C55E"/>
<path d="M82.0724 37.6175L89.2697 48.5147C89.5621 48.959 90.2537 48.7509 90.2537 48.2167V37.505C90.2537 36.6953 90.428 36.0824 90.7767 35.6776C91.1253 35.2727 91.5976 35.0703 92.188 35.0703C92.7784 35.0703 93.2845 35.2727 93.6331 35.6776C93.9874 36.0824 94.1617 36.6953 94.1617 37.505V54.0308C94.1617 55.8752 93.397 56.7973 91.8675 56.7973C91.4852 56.7973 91.1422 56.7411 90.8329 56.6343C90.5293 56.5218 90.2425 56.3475 89.9726 56.1113C89.7027 55.8695 89.4553 55.594 89.2247 55.2735C88.9942 54.953 88.7637 54.6269 88.5387 54.2895L81.3414 43.2573C81.1108 42.8974 80.5542 43.0661 80.5542 43.4935V54.3626C80.5542 55.1667 80.3686 55.774 79.9919 56.1844C79.6208 56.5949 79.1428 56.8029 78.558 56.8029C77.9732 56.8029 77.4728 56.5949 77.1073 56.1788C76.7474 55.7627 76.5619 55.1611 76.5619 54.3682V38.1573C76.5619 37.4713 76.6406 36.9315 76.7924 36.5379C76.9724 36.1049 77.276 35.7563 77.6977 35.4864C78.1194 35.2165 78.5749 35.0759 79.0585 35.0759C79.4408 35.0759 79.767 35.1378 80.0425 35.2615C80.3124 35.3852 80.5542 35.5539 80.7566 35.7619C80.9646 35.97 81.1727 36.2455 81.3864 36.5773C81.6 36.9146 81.825 37.2633 82.0499 37.6231L82.0724 37.6175Z" fill="#76C55E"/>
<path d="M66.8961 53.3053H80.5598V55.3633C80.5598 56.1561 79.9188 56.7972 79.126 56.7972H66.8961V53.3053Z" fill="#76C55E"/>
<path d="M205.052 53.3394H218.715V55.4086C218.715 56.2015 218.074 56.8425 217.281 56.8425H205.052V53.3394Z" fill="#76C55E"/>
<path d="M170.628 56.8477H158.398V53.2884L170.071 54.0306L172.062 55.4082C172.062 56.201 171.421 56.8421 170.628 56.8421V56.8477Z" fill="#76C55E"/>
</svg>
